PathFileType	4	(X/Y/Z)	C:/Users/opensim2020/Desktop/walking_exp_matlab/subject01_walking08_straight_03.trc																																																																																																																															
DataRate	CameraRate	NumFrames	NumMarkers	Units	OrigDataRate	OrigDataStartFrame	OrigNumFrames																																																																																																																											
100	100	4	43	mm	100	2995	326																																																																																																																											
Frame#	Time	LFHD			RFHD			LBHD			RBHD			C7			T10			CLAV			STRN			RBAK			LSHO			LUPA			LELB			LFRM			LWRA			LWRB			LFIN			RSHO			RUPA			RELB			RFRM			RWRA			RWRB			RFIN			LASI			RASI			LPSI			RPSI			LTHI			LKNE			LTIB			LANK			LHEE			LTOE			RTHI			RKNE			RTIB			RANK			RHEE			RTOE			*39			*40			*41			*42		
		X1	Y1	Z1	X2	Y2	Z2	X3	Y3	Z3	X4	Y4	Z4	X5	Y5	Z5	X6	Y6	Z6	X7	Y7	Z7	X8	Y8	Z8	X9	Y9	Z9	X10	Y10	Z10	X11	Y11	Z11	X12	Y12	Z12	X13	Y13	Z13	X14	Y14	Z14	X15	Y15	Z15	X16	Y16	Z16	X17	Y17	Z17	X18	Y18	Z18	X19	Y19	Z19	X20	Y20	Z20	X21	Y21	Z21	X22	Y22	Z22	X23	Y23	Z23	X24	Y24	Z24	X25	Y25	Z25	X26	Y26	Z26	X27	Y27	Z27	X28	Y28	Z28	X29	Y29	Z29	X30	Y30	Z30	X31	Y31	Z31	X32	Y32	Z32	X33	Y33	Z33	X34	Y34	Z34	X35	Y35	Z35	X36	Y36	Z36	X37	Y37	Z37	X38	Y38	Z38	X39	Y39	Z39	X40	Y40	Z40	X41	Y41	Z41	X42	Y42	Z42	X43	Y43	Z43
																																																																																																																																		
286	2.85	926.42072	1678.16174	-1097.8468	931.46448	1684.18713	-982.73383	813.36694	1624.61853	-1098.4696	815.93494	1629.69678	-976.75885	777.58636	1437.85547	-1061.13696	741.68622	1144.64514	-1051.2146	920.20081	1370.18225	-1046.42871	964.30389	1215.3147	-1049.30347	717.31549	1242.47205	-987.01099	877.85858	1400.04663	-1212.1709	882.39539	1217.13721	-1300.94495	901.90149	1066.03723	-1306.88818	977.84344	977.20526	-1319.19678	1086.99512	896.88361	-1281.88208	1042.78088	873.70642	-1315.22156	1112.34314	825.18121	-1313.38123	844.80933	1396.41846	-900.59424	773.59961	1196.48572	-808.16241	769.24884	1071.53955	-808.4964	790.30371	953.33014	-776.63965	869.59088	835.11981	-788.22699	822.43066	836.58533	-754.30536	858.55865	758.52228	-753.37927	919.23895	936.18164	-1144.46167	909.84058	945.19293	-927.87561	730.12939	945.95441	-1096.42639	727.9151	947.87433	-950.7605	887.19043	601.68683	-1189.0769	875.48456	467.27087	-1169.86145	811.45056	287.61887	-1174.77075	760.85474	76.25053	-1123.36951	712.07745	48.89371	-1071.3429	905.79584	38.72974	-1128.98169	952.57037	624.52362	-858.57477	1005.89825	474.09869	-880.96362	936.37415	311.74115	-883.73755	893.7514	111.38898	-938.33984	849.74756	76.21697	-997.73218	1022.45477	57.58533	-918.2619	918.02344	1716.44849	-1006.33173	1973.19434	1023.45386	-3101.87598	2012.53137	1022.02405	-3140.66357	NaN	NaN	NaN
287	2.86	932.60565	1677.98633	-1097.13818	937.39203	1683.90283	-982.09045	819.6319	1624.23389	-1098.13977	821.91455	1629.21851	-976.28418	784.10406	1437.53015	-1060.88684	748.18689	1144.30066	-1050.91602	926.67804	1369.83276	-1046.01953	970.815	1214.96411	-1049.06152	723.86633	1242.10449	-986.8927	884.63599	1399.80212	-1211.78259	890.22333	1217.18103	-1300.71008	910.42328	1066.03113	-1306.66565	987.48132	978.02539	-1318.53284	1097.5	899.19153	-1280.85938	1053.67297	875.36041	-1314.19336	1123.82813	827.68976	-1311.94055	851.03729	1395.97485	-900.22064	779.1839	1196.08643	-808.27887	774.49426	1071.26074	-808.76794	795.15302	952.92981	-776.93988	874.25586	834.56317	-788.08447	826.85938	836.04962	-754.40387	862.80298	757.9967	-753.37457	925.06451	935.5824	-1144.59436	916.61212	944.99548	-927.77881	736.49396	945.5722	-1096.09119	734.64581	947.73206	-950.4776	891.2569	601.30145	-1188.87244	878.32288	466.83734	-1169.97839	813.30676	287.57779	-1174.76257	761.14386	76.50956	-1123.2876	712.08514	49.30568	-1071.3645	905.84698	38.85199	-1129.0658	957.49847	623.66046	-859.0199	1013.00189	474.10883	-881.54669	948.85004	309.62741	-883.48297	915.39563	107.00861	-937.16083	873.0166	69.88986	-996.62921	1046.28418	58.21789	-916.91272	923.92261	1716.14612	-1005.66467	1973.05115	1023.46057	-3101.98633	2012.56775	1022.00079	-3140.70825	NaN	NaN	NaN
288	2.87	938.78302	1677.70703	-1096.35132	943.38922	1683.58545	-981.36456	825.94019	1623.8313	-1097.67029	827.92352	1628.6582	-975.87799	790.55438	1437.16956	-1060.59778	754.7395	1143.90759	-1050.58179	933.1665	1369.45813	-1045.50171	977.24445	1214.61035	-1048.73633	730.37762	1241.59717	-986.78217	891.34106	1399.495	-1211.28491	898.04425	1217.10986	-1300.38867	918.84833	1065.94275	-1306.34241	997.07086	978.81714	-1317.81641	1107.85706	901.39783	-1279.72937	1064.38721	876.92554	-1313.12854	1135.16602	830.21277	-1310.66077	857.22766	1395.50708	-899.76703	784.82825	1195.6532	-808.34277	779.90973	1070.86121	-808.89111	800.03455	952.45563	-777.02881	878.88379	833.909	-787.91327	831.09821	835.37903	-754.70905	866.961	757.24152	-753.35828	931.20526	935.03369	-1144.51733	923.50702	944.7348	-927.64844	742.86047	945.32367	-1095.61035	741.37531	947.53552	-950.00916	895.45587	600.88373	-1188.65955	881.4212	466.33716	-1170.02466	815.2998	287.5192	-1174.71228	761.44092	76.69659	-1123.34985	712.26184	49.71187	-1071.26416	905.66516	38.79594	-1129.12976	963.29834	622.87994	-859.03784	1019.60522	473.98239	-882.22296	961.15009	307.53342	-883.25177	936.55823	103.09512	-935.91577	895.75702	64.11148	-995.28821	1069.57422	59.91365	-915.28119	929.85699	1715.83044	-1004.86011	1973.16614	1023.39447	-3101.88843	2012.48315	1021.93561	-3140.6272	NaN	NaN	NaN
289	2.88	944.97412	1677.4939	-1095.55566	949.3385	1683.27917	-980.51849	832.19525	1623.41675	-1097.0791	833.9729	1628.17249	-975.29584	797.00854	1436.79724	-1060.03271	761.3075	1143.54565	-1049.97888	939.64746	1369.08203	-1044.96753	983.73547	1214.2207	-1048.41309	736.90875	1241.05774	-986.53052	897.97992	1399.1947	-1210.72815	905.76569	1216.93835	-1299.85962	927.28064	1065.86047	-1305.92419	1006.46704	979.49475	-1316.97766	1118.05835	903.50549	-1278.5105	1074.92517	878.39008	-1311.89099	1146.16296	832.50629	-1309.26978	863.53131	1395.11035	-899.37982	790.53705	1195.20483	-808.24268	785.4679	1070.46631	-809.01068	805.07397	951.98346	-777.05103	883.52875	833.15778	-787.74042	835.66516	834.79602	-754.65247	871.36444	756.57367	-753.24304	937.36243	934.49066	-1144.40527	930.49207	944.42773	-927.5473	749.27698	945.16479	-1095.01355	748.17096	947.29901	-949.4577	899.86786	600.47308	-1188.38257	884.7406	465.82474	-1169.99829	817.43542	287.40564	-1174.56104	761.85583	77.0433	-1123.19934	712.40137	50.22485	-1071.27942	905.72522	38.77181	-1129.1731	968.67883	622.05292	-858.96942	1025.88635	473.65771	-883.05029	973.39343	305.62439	-883.02222	957.46204	99.67584	-934.57129	919.10291	58.84715	-993.82141	1091.97595	61.40979	-913.50745	935.82434	1715.49646	-1004.01642	1973.11182	1023.51166	-3101.83447	2012.43152	1021.93677	-3140.63452	NaN	NaN	NaN
